<?xml version="1.0" encoding="utf-8"?>
<svg xmlns="http://www.w3.org/2000/svg" xmlns:xlink="http://www.w3.org/1999/xlink" width="180" zoomAndPan="magnify" viewBox="101.25 52.5 180 213.75" height="213.75" preserveAspectRatio="xMidYMid meet" version="1.0">
  <defs>
    <g>
      <g id="id1" />
      <g id="id2" />
    </g>
    <clipPath id="id3">
      <path d="M 176.8125 61.386719 L 198.5625 61.386719 L 198.5625 83.136719 L 176.8125 83.136719 Z M 176.8125 61.386719 " clip-rule="nonzero" />
    </clipPath>
    <clipPath id="id4">
      <path d="M 135.855469 82.761719 L 157.605469 82.761719 L 157.605469 104.511719 L 135.855469 104.511719 Z M 135.855469 82.761719 " clip-rule="nonzero" />
    </clipPath>
    <clipPath id="id5">
      <path d="M 219.574219 82.761719 L 241.324219 82.761719 L 241.324219 104.511719 L 219.574219 104.511719 Z M 219.574219 82.761719 " clip-rule="nonzero" />
    </clipPath>
  </defs>
  <path fill="rgb(90.979004%, 36.859131%, 0%)" d="M 188.625 92.890625 C 174.054688 92.890625 162.238281 104.703125 162.238281 119.277344 C 162.238281 128.859375 170.601562 136.460938 174.988281 144.242188 C 175.816406 145.710938 175.777344 151 175.777344 151 L 201.347656 151 C 201.347656 151 201.433594 145.710938 202.265625 144.242188 C 206.648438 136.460938 215.011719 128.859375 215.011719 119.277344 C 215.011719 104.703125 203.195312 92.890625 188.625 92.890625 Z M 188.625 96.710938 C 201.070312 96.710938 211.191406 106.832031 211.191406 119.277344 C 211.191406 124.796875 207.589844 129.804688 203.773438 135.105469 C 202.085938 137.457031 200.335938 139.882812 198.9375 142.367188 C 198.507812 143.125 198.039062 144.292969 197.75 147.183594 L 179.449219 147.183594 C 179.265625 144.894531 178.914062 143.433594 178.3125 142.367188 C 176.914062 139.882812 175.167969 137.453125 173.476562 135.105469 C 169.660156 129.804688 166.054688 124.796875 166.054688 119.277344 C 166.054688 106.832031 176.179688 96.710938 188.625 96.710938 " fill-opacity="1" fill-rule="nonzero" />
  <path fill="rgb(90.979004%, 36.859131%, 0%)" d="M 204.15625 153 C 204.15625 154.101562 203.257812 154.996094 202.15625 154.996094 L 175.09375 154.996094 C 173.988281 154.996094 173.09375 154.101562 173.09375 153 C 173.09375 151.894531 173.988281 151 175.09375 151 L 202.15625 151 C 203.257812 151 204.15625 151.894531 204.15625 153 " fill-opacity="1" fill-rule="nonzero" />
  <path fill="rgb(90.979004%, 36.859131%, 0%)" d="M 204.15625 156.996094 C 204.15625 158.101562 203.257812 158.996094 202.15625 158.996094 L 175.09375 158.996094 C 173.988281 158.996094 173.09375 158.101562 173.09375 156.996094 C 173.09375 155.894531 173.988281 154.996094 175.09375 154.996094 L 202.15625 154.996094 C 203.257812 154.996094 204.15625 155.894531 204.15625 156.996094 " fill-opacity="1" fill-rule="nonzero" />
  <path fill="rgb(90.979004%, 36.859131%, 0%)" d="M 204.15625 160.996094 C 204.15625 162.101562 203.257812 162.996094 202.15625 162.996094 L 175.09375 162.996094 C 173.988281 162.996094 173.09375 162.101562 173.09375 160.996094 C 173.09375 159.894531 173.988281 158.996094 175.09375 158.996094 L 202.15625 158.996094 C 203.257812 158.996094 204.15625 159.894531 204.15625 160.996094 " fill-opacity="1" fill-rule="nonzero" />
  <path fill="rgb(90.979004%, 36.859131%, 0%)" d="M 177.199219 162.996094 C 177.238281 166.527344 182.335938 169.382812 188.625 169.382812 C 194.910156 169.382812 200.011719 166.527344 200.050781 162.996094 L 177.199219 162.996094 " fill-opacity="1" fill-rule="nonzero" />
  <g clip-path="url(#id3)">
    <path fill="rgb(90.979004%, 36.859131%, 0%)" d="M 187.6875 83.136719 C 186.0625 83.136719 184.414062 82.039062 184.414062 79.941406 L 184.414062 75.535156 L 180.007812 75.535156 C 177.910156 75.535156 176.8125 73.886719 176.8125 72.261719 C 176.8125 70.636719 177.910156 68.988281 180.007812 68.988281 L 184.414062 68.988281 L 184.414062 64.582031 C 184.414062 62.484375 186.0625 61.386719 187.6875 61.386719 C 189.3125 61.386719 190.960938 62.484375 190.960938 64.582031 L 190.960938 68.988281 L 195.367188 68.988281 C 197.464844 68.988281 198.5625 70.636719 198.5625 72.261719 C 198.5625 73.886719 197.464844 75.535156 195.367188 75.535156 L 190.960938 75.535156 L 190.960938 79.941406 C 190.960938 82.039062 189.3125 83.136719 187.6875 83.136719 Z M 180.007812 70.847656 C 178.710938 70.847656 178.671875 72.117188 178.671875 72.261719 C 178.671875 72.40625 178.710938 73.671875 180.007812 73.671875 L 186.277344 73.671875 L 186.277344 79.941406 C 186.277344 81.238281 187.542969 81.273438 187.6875 81.273438 C 187.832031 81.273438 189.101562 81.238281 189.101562 79.941406 L 189.101562 73.671875 L 195.367188 73.671875 C 196.664062 73.671875 196.703125 72.40625 196.703125 72.261719 C 196.703125 72.117188 196.664062 70.847656 195.367188 70.847656 L 189.101562 70.847656 L 189.101562 64.582031 C 189.101562 63.285156 187.832031 63.246094 187.6875 63.246094 C 187.542969 63.246094 186.277344 63.285156 186.277344 64.582031 L 186.277344 70.847656 Z M 180.007812 70.847656 " fill-opacity="1" fill-rule="nonzero" />
  </g>
  <g clip-path="url(#id4)">
    <path fill="rgb(90.979004%, 36.859131%, 0%)" d="M 146.730469 104.511719 C 145.105469 104.511719 143.460938 103.414062 143.460938 101.316406 L 143.460938 96.910156 L 139.054688 96.910156 C 136.953125 96.910156 135.855469 95.261719 135.855469 93.636719 C 135.855469 92.011719 136.953125 90.363281 139.054688 90.363281 L 143.460938 90.363281 L 143.460938 85.957031 C 143.460938 83.859375 145.105469 82.761719 146.730469 82.761719 C 148.359375 82.761719 150.003906 83.859375 150.003906 85.957031 L 150.003906 90.363281 L 154.410156 90.363281 C 156.507812 90.363281 157.605469 92.011719 157.605469 93.636719 C 157.605469 95.261719 156.507812 96.910156 154.410156 96.910156 L 150.003906 96.910156 L 150.003906 101.316406 C 150.003906 103.414062 148.359375 104.511719 146.730469 104.511719 Z M 139.054688 92.222656 C 137.753906 92.222656 137.71875 93.492188 137.71875 93.636719 C 137.71875 93.78125 137.753906 95.046875 139.054688 95.046875 L 145.320312 95.046875 L 145.320312 101.316406 C 145.320312 102.613281 146.585938 102.648438 146.730469 102.648438 C 146.875 102.648438 148.144531 102.613281 148.144531 101.316406 L 148.144531 95.046875 L 154.410156 95.046875 C 155.707031 95.046875 155.746094 93.78125 155.746094 93.636719 C 155.746094 93.492188 155.707031 92.222656 154.410156 92.222656 L 148.144531 92.222656 L 148.144531 85.957031 C 148.144531 84.660156 146.875 84.621094 146.730469 84.621094 C 146.585938 84.621094 145.320312 84.660156 145.320312 85.957031 L 145.320312 92.222656 Z M 139.054688 92.222656 " fill-opacity="1" fill-rule="nonzero" />
  </g>
  <g clip-path="url(#id5)">
    <path fill="rgb(90.979004%, 36.859131%, 0%)" d="M 230.449219 104.511719 C 228.824219 104.511719 227.175781 103.414062 227.175781 101.316406 L 227.175781 96.910156 L 222.769531 96.910156 C 220.671875 96.910156 219.574219 95.261719 219.574219 93.636719 C 219.574219 92.011719 220.671875 90.363281 222.769531 90.363281 L 227.175781 90.363281 L 227.175781 85.957031 C 227.175781 83.859375 228.824219 82.761719 230.449219 82.761719 C 232.074219 82.761719 233.722656 83.859375 233.722656 85.957031 L 233.722656 90.363281 L 238.128906 90.363281 C 240.226562 90.363281 241.324219 92.011719 241.324219 93.636719 C 241.324219 95.261719 240.226562 96.910156 238.128906 96.910156 L 233.722656 96.910156 L 233.722656 101.316406 C 233.722656 103.414062 232.074219 104.511719 230.449219 104.511719 Z M 222.769531 92.222656 C 221.472656 92.222656 221.433594 93.492188 221.433594 93.636719 C 221.433594 93.78125 221.472656 95.046875 222.769531 95.046875 L 229.039062 95.046875 L 229.039062 101.316406 C 229.039062 102.613281 230.304688 102.648438 230.449219 102.648438 C 230.59375 102.648438 231.863281 102.613281 231.863281 101.316406 L 231.863281 95.046875 L 238.128906 95.046875 C 239.425781 95.046875 239.464844 93.78125 239.464844 93.636719 C 239.464844 93.492188 239.425781 92.222656 238.128906 92.222656 L 231.863281 92.222656 L 231.863281 85.957031 C 231.863281 84.660156 230.59375 84.621094 230.449219 84.621094 C 230.304688 84.621094 229.039062 84.660156 229.039062 85.957031 L 229.039062 92.222656 Z M 222.769531 92.222656 " fill-opacity="1" fill-rule="nonzero" />
  </g>
  <g fill="rgb(0%, 0%, 0%)" fill-opacity="1">
    <g transform="translate(104.565748, 225.77663)">
      <g>
        <path d="M 21.53125 -20.65625 C 21.53125 -17.894531 20.335938 -15.796875 17.953125 -14.359375 C 19.242188 -13.890625 20.328125 -13.066406 21.203125 -11.890625 C 22.085938 -10.722656 22.53125 -9.070312 22.53125 -6.9375 C 22.53125 -4.800781 21.738281 -3.109375 20.15625 -1.859375 C 18.582031 -0.617188 16.320312 0 13.375 0 L 3.984375 0 C 3.523438 0 3.148438 -0.148438 2.859375 -0.453125 C 2.566406 -0.765625 2.421875 -1.171875 2.421875 -1.671875 L 2.421875 -27.140625 C 2.421875 -27.429688 2.46875 -27.625 2.5625 -27.71875 C 2.65625 -27.8125 2.847656 -27.859375 3.140625 -27.859375 L 12.21875 -27.859375 C 18.425781 -27.859375 21.53125 -25.457031 21.53125 -20.65625 Z M 10.0625 -21.40625 L 10.0625 -16.203125 L 10.265625 -16.203125 C 12.816406 -16.203125 14.09375 -17.050781 14.09375 -18.75 C 14.09375 -19.675781 13.84375 -20.347656 13.34375 -20.765625 C 12.851562 -21.191406 12.039062 -21.40625 10.90625 -21.40625 Z M 10.0625 -11.5 L 10.0625 -6.328125 L 10.78125 -6.328125 C 11.925781 -6.328125 12.765625 -6.535156 13.296875 -6.953125 C 13.828125 -7.378906 14.09375 -8.054688 14.09375 -8.984375 C 14.09375 -9.921875 13.84375 -10.570312 13.34375 -10.9375 C 12.851562 -11.3125 12.039062 -11.5 10.90625 -11.5 Z M 10.0625 -11.5 " />
      </g>
    </g>
  </g>
  <g fill="rgb(0%, 0%, 0%)" fill-opacity="1">
    <g transform="translate(129.392162, 225.77663)">
      <g>
        <path d="M 1.59375 -2.34375 L 1.59375 -27.109375 C 1.59375 -27.660156 2.9375 -27.9375 5.625 -27.9375 C 8.320312 -27.9375 9.671875 -27.660156 9.671875 -27.109375 L 9.671875 -7.59375 L 15.796875 -7.59375 C 16.273438 -7.59375 16.609375 -6.972656 16.796875 -5.734375 C 16.867188 -5.117188 16.90625 -4.492188 16.90625 -3.859375 C 16.90625 -3.222656 16.867188 -2.570312 16.796875 -1.90625 C 16.578125 -0.632812 16.234375 0 15.765625 0 L 3.5 0 C 2.914062 0 2.453125 -0.238281 2.109375 -0.71875 C 1.765625 -1.195312 1.59375 -1.738281 1.59375 -2.34375 Z M 1.59375 -2.34375 " />
      </g>
    </g>
  </g>
  <g fill="rgb(0%, 0%, 0%)" fill-opacity="1">
    <g transform="translate(147.892728, 225.77663)">
      <g>
        <path d="M 13.828125 0.390625 C 10.097656 0.390625 7.054688 -0.828125 4.703125 -3.265625 C 2.359375 -5.703125 1.1875 -9.257812 1.1875 -13.9375 C 1.1875 -18.625 2.375 -22.175781 4.75 -24.59375 C 7.125 -27.007812 10.1875 -28.21875 13.9375 -28.21875 C 17.695312 -28.21875 20.726562 -27.03125 23.03125 -24.65625 C 25.34375 -22.28125 26.5 -18.679688 26.5 -13.859375 C 26.5 -9.046875 25.316406 -5.46875 22.953125 -3.125 C 20.597656 -0.78125 17.554688 0.390625 13.828125 0.390625 Z M 13.84375 -20.578125 C 12.570312 -20.578125 11.503906 -19.992188 10.640625 -18.828125 C 9.785156 -17.660156 9.359375 -16.019531 9.359375 -13.90625 C 9.359375 -11.800781 9.765625 -10.179688 10.578125 -9.046875 C 11.398438 -7.921875 12.484375 -7.359375 13.828125 -7.359375 C 15.171875 -7.359375 16.257812 -7.925781 17.09375 -9.0625 C 17.925781 -10.207031 18.34375 -11.84375 18.34375 -13.96875 C 18.34375 -16.09375 17.910156 -17.722656 17.046875 -18.859375 C 16.191406 -20.003906 15.125 -20.578125 13.84375 -20.578125 Z M 13.84375 -20.578125 " />
      </g>
    </g>
  </g>
  <g fill="rgb(0%, 0%, 0%)" fill-opacity="1">
    <g transform="translate(176.77723, 225.77663)">
      <g>
        <path d="M 29.84375 0.046875 C 27.488281 0.046875 26.3125 -0.21875 26.3125 -0.75 L 25.46875 -16.71875 L 20.609375 -0.5625 C 20.503906 -0.238281 19.601562 -0.078125 17.90625 -0.078125 C 16.207031 -0.078125 15.332031 -0.222656 15.28125 -0.515625 L 10.265625 -16.875 L 9.703125 -1 C 9.679688 -0.59375 9.175781 -0.316406 8.1875 -0.171875 C 7.207031 -0.0234375 6.394531 0.046875 5.75 0.046875 C 5.101562 0.046875 4.472656 0.00390625 3.859375 -0.078125 C 2.585938 -0.265625 1.960938 -0.597656 1.984375 -1.078125 L 2.90625 -26.9375 C 2.90625 -27.570312 4.523438 -27.890625 7.765625 -27.890625 C 8.710938 -27.890625 9.875 -27.816406 11.25 -27.671875 C 12.632812 -27.523438 13.410156 -27.242188 13.578125 -26.828125 L 18.03125 -14.28125 L 21.921875 -26.859375 C 22.160156 -27.546875 23.992188 -27.890625 27.421875 -27.890625 C 28.398438 -27.890625 29.570312 -27.816406 30.9375 -27.671875 C 32.300781 -27.523438 32.984375 -27.269531 32.984375 -26.90625 L 34.140625 -0.796875 C 34.140625 -0.503906 33.625 -0.289062 32.59375 -0.15625 C 31.5625 -0.0195312 30.644531 0.046875 29.84375 0.046875 Z M 29.84375 0.046875 " />
      </g>
    </g>
  </g>
  <g fill="rgb(0%, 0%, 0%)" fill-opacity="1">
    <g transform="translate(214.056402, 225.77663)">
      <g>
        <path d="M 4.609375 -6.84375 L 4.609375 -21.015625 L 1.796875 -21.015625 C 1.335938 -21.015625 1.015625 -21.582031 0.828125 -22.71875 C 0.753906 -23.28125 0.71875 -23.851562 0.71875 -24.4375 C 0.71875 -25.019531 0.753906 -25.585938 0.828125 -26.140625 C 1.015625 -27.285156 1.335938 -27.859375 1.796875 -27.859375 L 15.15625 -27.859375 C 15.613281 -27.859375 15.921875 -27.285156 16.078125 -26.140625 C 16.179688 -25.585938 16.234375 -25.019531 16.234375 -24.4375 C 16.234375 -23.851562 16.179688 -23.28125 16.078125 -22.71875 C 15.921875 -21.582031 15.613281 -21.015625 15.15625 -21.015625 L 12.5 -21.015625 L 12.5 -6.84375 L 15.28125 -6.84375 C 15.726562 -6.84375 16.046875 -6.273438 16.234375 -5.140625 C 16.335938 -4.578125 16.390625 -4.003906 16.390625 -3.421875 C 16.390625 -2.835938 16.335938 -2.269531 16.234375 -1.71875 C 16.046875 -0.570312 15.726562 0 15.28125 0 L 1.875 0 C 1.414062 0 1.109375 -0.570312 0.953125 -1.71875 C 0.847656 -2.269531 0.796875 -2.835938 0.796875 -3.421875 C 0.796875 -4.003906 0.847656 -4.578125 0.953125 -5.140625 C 1.109375 -6.273438 1.414062 -6.84375 1.875 -6.84375 Z M 4.609375 -6.84375 " />
      </g>
    </g>
  </g>
  <g fill="rgb(0%, 0%, 0%)" fill-opacity="1">
    <g transform="translate(232.318253, 225.77663)">
      <g>
        <path d="M 1.59375 -2.34375 L 1.59375 -27.109375 C 1.59375 -27.660156 2.9375 -27.9375 5.625 -27.9375 C 8.320312 -27.9375 9.671875 -27.660156 9.671875 -27.109375 L 9.671875 -7.59375 L 15.796875 -7.59375 C 16.273438 -7.59375 16.609375 -6.972656 16.796875 -5.734375 C 16.867188 -5.117188 16.90625 -4.492188 16.90625 -3.859375 C 16.90625 -3.222656 16.867188 -2.570312 16.796875 -1.90625 C 16.578125 -0.632812 16.234375 0 15.765625 0 L 3.5 0 C 2.914062 0 2.453125 -0.238281 2.109375 -0.71875 C 1.765625 -1.195312 1.59375 -1.738281 1.59375 -2.34375 Z M 1.59375 -2.34375 " />
      </g>
    </g>
  </g>
  <g fill="rgb(0%, 0%, 0%)" fill-opacity="1">
    <g transform="translate(250.818816, 225.77663)">
      <g>
        <path d="M 14.921875 -16.796875 C 15.429688 -16.796875 15.6875 -15.867188 15.6875 -14.015625 C 15.6875 -13.453125 15.625 -12.789062 15.5 -12.03125 C 15.382812 -11.28125 15.164062 -10.90625 14.84375 -10.90625 L 9.796875 -10.90625 L 9.796875 -6.921875 L 17.109375 -6.921875 C 17.566406 -6.921875 17.875 -6.335938 18.03125 -5.171875 C 18.101562 -4.671875 18.140625 -4.132812 18.140625 -3.5625 C 18.140625 -2.988281 18.0625 -2.25 17.90625 -1.34375 C 17.75 -0.445312 17.484375 0 17.109375 0 L 3.5 0 C 2.488281 0 1.984375 -0.410156 1.984375 -1.234375 L 1.984375 -26.828125 C 1.984375 -27.515625 2.289062 -27.859375 2.90625 -27.859375 L 17.15625 -27.859375 C 17.707031 -27.859375 17.984375 -26.679688 17.984375 -24.328125 C 17.984375 -21.984375 17.707031 -20.8125 17.15625 -20.8125 L 9.796875 -20.8125 L 9.796875 -16.796875 Z M 14.921875 -16.796875 " />
      </g>
    </g>
  </g>
  <g fill="rgb(90.979004%, 36.859131%, 0%)" fill-opacity="1">
    <g transform="translate(110.641707, 248.766838)">
      <g>
        <path d="M 4.828125 0.140625 C 3.523438 0.140625 2.460938 -0.285156 1.640625 -1.140625 C 0.828125 -1.992188 0.421875 -3.238281 0.421875 -4.875 C 0.421875 -6.507812 0.832031 -7.75 1.65625 -8.59375 C 2.488281 -9.4375 3.5625 -9.859375 4.875 -9.859375 C 6.1875 -9.859375 7.242188 -9.441406 8.046875 -8.609375 C 8.859375 -7.785156 9.265625 -6.53125 9.265625 -4.84375 C 9.265625 -3.164062 8.847656 -1.914062 8.015625 -1.09375 C 7.191406 -0.269531 6.128906 0.140625 4.828125 0.140625 Z M 4.828125 -7.1875 C 4.390625 -7.1875 4.019531 -6.984375 3.71875 -6.578125 C 3.414062 -6.171875 3.265625 -5.597656 3.265625 -4.859375 C 3.265625 -4.117188 3.40625 -3.550781 3.6875 -3.15625 C 3.976562 -2.769531 4.359375 -2.578125 4.828125 -2.578125 C 5.296875 -2.578125 5.675781 -2.773438 5.96875 -3.171875 C 6.257812 -3.566406 6.40625 -4.132812 6.40625 -4.875 C 6.40625 -5.625 6.253906 -6.195312 5.953125 -6.59375 C 5.648438 -6.988281 5.273438 -7.1875 4.828125 -7.1875 Z M 4.828125 -7.1875 " />
      </g>
    </g>
  </g>
  <g fill="rgb(90.979004%, 36.859131%, 0%)" fill-opacity="1">
    <g transform="translate(121.575319, 248.766838)">
      <g>
        <path d="M 8.3125 -0.3125 C 8.3125 -0.113281 7.875 -0.015625 7 -0.015625 C 6.132812 -0.015625 5.664062 -0.0820312 5.59375 -0.21875 L 3.265625 -4.5625 L 3.265625 -0.234375 C 3.265625 -0.0664062 2.832031 0.015625 1.96875 0.015625 C 1.113281 0.015625 0.6875 -0.0664062 0.6875 -0.234375 L 0.6875 -9.546875 C 0.6875 -9.679688 1.054688 -9.75 1.796875 -9.75 C 2.078125 -9.75 2.410156 -9.722656 2.796875 -9.671875 C 3.179688 -9.617188 3.414062 -9.523438 3.5 -9.390625 L 5.734375 -5.109375 L 5.734375 -9.46875 C 5.734375 -9.644531 6.160156 -9.734375 7.015625 -9.734375 C 7.878906 -9.734375 8.3125 -9.644531 8.3125 -9.46875 Z M 8.3125 -0.3125 " />
      </g>
    </g>
  </g>
  <g fill="rgb(90.979004%, 36.859131%, 0%)" fill-opacity="1">
    <g transform="translate(131.841248, 248.766838)">
      <g>
        <path d="M 5.21875 -5.875 C 5.394531 -5.875 5.484375 -5.546875 5.484375 -4.890625 C 5.484375 -4.703125 5.460938 -4.472656 5.421875 -4.203125 C 5.378906 -3.941406 5.300781 -3.8125 5.1875 -3.8125 L 3.421875 -3.8125 L 3.421875 -2.421875 L 5.984375 -2.421875 C 6.140625 -2.421875 6.242188 -2.21875 6.296875 -1.8125 C 6.328125 -1.632812 6.34375 -1.445312 6.34375 -1.25 C 6.34375 -1.050781 6.3125 -0.789062 6.25 -0.46875 C 6.195312 -0.15625 6.109375 0 5.984375 0 L 1.21875 0 C 0.863281 0 0.6875 -0.144531 0.6875 -0.4375 L 0.6875 -9.375 C 0.6875 -9.613281 0.796875 -9.734375 1.015625 -9.734375 L 6 -9.734375 C 6.1875 -9.734375 6.28125 -9.320312 6.28125 -8.5 C 6.28125 -7.675781 6.1875 -7.265625 6 -7.265625 L 3.421875 -7.265625 L 3.421875 -5.875 Z M 5.21875 -5.875 " />
      </g>
    </g>
  </g>
  <g fill="rgb(90.979004%, 36.859131%, 0%)" fill-opacity="1">
    <g transform="translate(139.951112, 248.766838)">
      <g />
    </g>
  </g>
  <g fill="rgb(90.979004%, 36.859131%, 0%)" fill-opacity="1">
    <g transform="translate(143.818385, 248.766838)">
      <g>
        <path d="M 1.90625 0.03125 C 1.0625 0.03125 0.640625 -0.0625 0.640625 -0.25 L 0.640625 -9.265625 C 0.640625 -9.578125 0.785156 -9.734375 1.078125 -9.734375 L 3.515625 -9.734375 C 4.890625 -9.734375 5.878906 -9.445312 6.484375 -8.875 C 7.085938 -8.3125 7.390625 -7.492188 7.390625 -6.421875 C 7.390625 -5.535156 7.101562 -4.722656 6.53125 -3.984375 C 6.25 -3.609375 5.828125 -3.304688 5.265625 -3.078125 C 4.710938 -2.859375 4.066406 -2.75 3.328125 -2.75 L 3.328125 -0.265625 C 3.328125 -0.148438 3.148438 -0.0703125 2.796875 -0.03125 C 2.453125 0.0078125 2.15625 0.03125 1.90625 0.03125 Z M 3.328125 -7.3125 L 3.328125 -5.125 L 3.5 -5.125 C 3.820312 -5.125 4.09375 -5.222656 4.3125 -5.421875 C 4.539062 -5.628906 4.65625 -5.914062 4.65625 -6.28125 C 4.65625 -6.65625 4.578125 -6.921875 4.421875 -7.078125 C 4.273438 -7.234375 4.003906 -7.3125 3.609375 -7.3125 Z M 3.328125 -7.3125 " />
      </g>
    </g>
  </g>
  <g fill="rgb(90.979004%, 36.859131%, 0%)" fill-opacity="1">
    <g transform="translate(152.999321, 248.766838)">
      <g>
        <path d="M 7.234375 0.03125 C 6.421875 0.03125 5.984375 -0.0976562 5.921875 -0.359375 L 5.46875 -2.15625 L 3.25 -2.15625 L 2.84375 -0.4375 C 2.789062 -0.144531 2.347656 0 1.515625 0 C 1.066406 0 0.734375 -0.0234375 0.515625 -0.078125 C 0.304688 -0.128906 0.203125 -0.164062 0.203125 -0.1875 L 2.671875 -9.609375 C 2.671875 -9.679688 3.304688 -9.71875 4.578125 -9.71875 C 5.847656 -9.71875 6.484375 -9.679688 6.484375 -9.609375 L 8.890625 -0.1875 C 8.890625 -0.113281 8.675781 -0.0546875 8.25 -0.015625 C 7.820312 0.015625 7.484375 0.03125 7.234375 0.03125 Z M 3.609375 -3.921875 L 5.0625 -3.921875 L 4.4375 -6.796875 L 4.359375 -6.796875 Z M 3.609375 -3.921875 " />
      </g>
    </g>
  </g>
  <g fill="rgb(90.979004%, 36.859131%, 0%)" fill-opacity="1">
    <g transform="translate(163.362615, 248.766838)">
      <g>
        <path d="M 5.84375 -2.90625 L 5.875 -4.796875 C 5.875 -4.929688 6.003906 -5.019531 6.265625 -5.0625 C 6.535156 -5.101562 6.757812 -5.125 6.9375 -5.125 L 7.484375 -5.078125 C 7.835938 -5.023438 8.015625 -4.925781 8.015625 -4.78125 L 7.953125 -0.4375 C 7.765625 -0.300781 7.390625 -0.171875 6.828125 -0.046875 C 6.273438 0.078125 5.632812 0.140625 4.90625 0.140625 C 3.5625 0.140625 2.476562 -0.289062 1.65625 -1.15625 C 0.832031 -2.03125 0.421875 -3.3125 0.421875 -5 C 0.421875 -6.4375 0.820312 -7.601562 1.625 -8.5 C 2.4375 -9.40625 3.554688 -9.859375 4.984375 -9.859375 C 5.628906 -9.859375 6.210938 -9.796875 6.734375 -9.671875 C 7.253906 -9.546875 7.613281 -9.378906 7.8125 -9.171875 C 7.820312 -9.085938 7.828125 -8.941406 7.828125 -8.734375 C 7.828125 -8.535156 7.753906 -8.25 7.609375 -7.875 C 7.472656 -7.5 7.316406 -7.21875 7.140625 -7.03125 C 6.972656 -6.851562 6.847656 -6.765625 6.765625 -6.765625 C 6.679688 -6.765625 6.597656 -6.796875 6.515625 -6.859375 C 6.429688 -6.929688 6.257812 -7.003906 6 -7.078125 C 5.738281 -7.160156 5.488281 -7.203125 5.25 -7.203125 C 4.664062 -7.203125 4.195312 -7.015625 3.84375 -6.640625 C 3.488281 -6.273438 3.3125 -5.703125 3.3125 -4.921875 C 3.3125 -4.140625 3.492188 -3.546875 3.859375 -3.140625 C 4.222656 -2.742188 4.644531 -2.546875 5.125 -2.546875 C 5.601562 -2.546875 5.84375 -2.664062 5.84375 -2.90625 Z M 5.84375 -2.90625 " />
      </g>
    </g>
  </g>
  <g fill="rgb(90.979004%, 36.859131%, 0%)" fill-opacity="1">
    <g transform="translate(173.25297, 248.766838)">
      <g>
        <path d="M 5.21875 -5.875 C 5.394531 -5.875 5.484375 -5.546875 5.484375 -4.890625 C 5.484375 -4.703125 5.460938 -4.472656 5.421875 -4.203125 C 5.378906 -3.941406 5.300781 -3.8125 5.1875 -3.8125 L 3.421875 -3.8125 L 3.421875 -2.421875 L 5.984375 -2.421875 C 6.140625 -2.421875 6.242188 -2.21875 6.296875 -1.8125 C 6.328125 -1.632812 6.34375 -1.445312 6.34375 -1.25 C 6.34375 -1.050781 6.3125 -0.789062 6.25 -0.46875 C 6.195312 -0.15625 6.109375 0 5.984375 0 L 1.21875 0 C 0.863281 0 0.6875 -0.144531 0.6875 -0.4375 L 0.6875 -9.375 C 0.6875 -9.613281 0.796875 -9.734375 1.015625 -9.734375 L 6 -9.734375 C 6.1875 -9.734375 6.28125 -9.320312 6.28125 -8.5 C 6.28125 -7.675781 6.1875 -7.265625 6 -7.265625 L 3.421875 -7.265625 L 3.421875 -5.875 Z M 5.21875 -5.875 " />
      </g>
    </g>
  </g>
  <g fill="rgb(90.979004%, 36.859131%, 0%)" fill-opacity="1">
    <g transform="translate(181.362831, 248.766838)">
      <g>
        <path d="M 1.671875 -2.0625 C 1.722656 -2.207031 2.113281 -2.28125 2.84375 -2.28125 C 3.582031 -2.28125 3.953125 -2.179688 3.953125 -1.984375 L 3.921875 -0.8125 L 3.109375 1.078125 C 2.992188 1.347656 2.625 1.484375 2 1.484375 C 1.375 1.484375 0.976562 1.382812 0.8125 1.1875 C 0.769531 1.132812 0.75 1.085938 0.75 1.046875 C 0.75 1.003906 0.753906 0.96875 0.765625 0.9375 L 1.609375 -0.796875 Z M 1.671875 -2.0625 " />
      </g>
    </g>
  </g>
  <g fill="rgb(90.979004%, 36.859131%, 0%)" fill-opacity="1">
    <g transform="translate(186.857591, 248.766838)">
      <g />
    </g>
  </g>
  <g fill="rgb(90.979004%, 36.859131%, 0%)" fill-opacity="1">
    <g transform="translate(190.724864, 248.766838)">
      <g>
        <path d="M 7.234375 0.03125 C 6.421875 0.03125 5.984375 -0.0976562 5.921875 -0.359375 L 5.46875 -2.15625 L 3.25 -2.15625 L 2.84375 -0.4375 C 2.789062 -0.144531 2.347656 0 1.515625 0 C 1.066406 0 0.734375 -0.0234375 0.515625 -0.078125 C 0.304688 -0.128906 0.203125 -0.164062 0.203125 -0.1875 L 2.671875 -9.609375 C 2.671875 -9.679688 3.304688 -9.71875 4.578125 -9.71875 C 5.847656 -9.71875 6.484375 -9.679688 6.484375 -9.609375 L 8.890625 -0.1875 C 8.890625 -0.113281 8.675781 -0.0546875 8.25 -0.015625 C 7.820312 0.015625 7.484375 0.03125 7.234375 0.03125 Z M 3.609375 -3.921875 L 5.0625 -3.921875 L 4.4375 -6.796875 L 4.359375 -6.796875 Z M 3.609375 -3.921875 " />
      </g>
    </g>
  </g>
  <g fill="rgb(90.979004%, 36.859131%, 0%)" fill-opacity="1">
    <g transform="translate(201.088158, 248.766838)">
      <g>
        <path d="M 0.5625 -0.828125 L 0.5625 -9.46875 C 0.5625 -9.664062 1.03125 -9.765625 1.96875 -9.765625 C 2.90625 -9.765625 3.375 -9.664062 3.375 -9.46875 L 3.375 -2.65625 L 5.515625 -2.65625 C 5.679688 -2.65625 5.800781 -2.4375 5.875 -2 C 5.894531 -1.789062 5.90625 -1.570312 5.90625 -1.34375 C 5.90625 -1.125 5.894531 -0.898438 5.875 -0.671875 C 5.789062 -0.222656 5.664062 0 5.5 0 L 1.21875 0 C 1.019531 0 0.859375 -0.0820312 0.734375 -0.25 C 0.617188 -0.414062 0.5625 -0.609375 0.5625 -0.828125 Z M 0.5625 -0.828125 " />
      </g>
    </g>
  </g>
  <g fill="rgb(90.979004%, 36.859131%, 0%)" fill-opacity="1">
    <g transform="translate(208.391239, 248.766838)">
      <g>
        <path d="M 0.5625 -0.828125 L 0.5625 -9.46875 C 0.5625 -9.664062 1.03125 -9.765625 1.96875 -9.765625 C 2.90625 -9.765625 3.375 -9.664062 3.375 -9.46875 L 3.375 -2.65625 L 5.515625 -2.65625 C 5.679688 -2.65625 5.800781 -2.4375 5.875 -2 C 5.894531 -1.789062 5.90625 -1.570312 5.90625 -1.34375 C 5.90625 -1.125 5.894531 -0.898438 5.875 -0.671875 C 5.789062 -0.222656 5.664062 0 5.5 0 L 1.21875 0 C 1.019531 0 0.859375 -0.0820312 0.734375 -0.25 C 0.617188 -0.414062 0.5625 -0.609375 0.5625 -0.828125 Z M 0.5625 -0.828125 " />
      </g>
    </g>
  </g>
  <g fill="rgb(90.979004%, 36.859131%, 0%)" fill-opacity="1">
    <g transform="translate(215.69432, 248.766838)">
      <g />
    </g>
  </g>
  <g fill="rgb(90.979004%, 36.859131%, 0%)" fill-opacity="1">
    <g transform="translate(219.561599, 248.766838)">
      <g>
        <path d="M 4.875 -0.21875 C 4.875 -0.03125 4.414062 0.0625 3.5 0.0625 C 2.582031 0.0625 2.125 -0.03125 2.125 -0.21875 L 2.125 -7.203125 L 0.453125 -7.203125 C 0.296875 -7.203125 0.1875 -7.414062 0.125 -7.84375 C 0.09375 -8.050781 0.078125 -8.257812 0.078125 -8.46875 C 0.078125 -8.675781 0.09375 -8.882812 0.125 -9.09375 C 0.1875 -9.519531 0.296875 -9.734375 0.453125 -9.734375 L 6.515625 -9.734375 C 6.671875 -9.734375 6.78125 -9.519531 6.84375 -9.09375 C 6.875 -8.882812 6.890625 -8.675781 6.890625 -8.46875 C 6.890625 -8.257812 6.875 -8.050781 6.84375 -7.84375 C 6.78125 -7.414062 6.671875 -7.203125 6.515625 -7.203125 L 4.875 -7.203125 Z M 4.875 -0.21875 " />
      </g>
    </g>
  </g>
  <g fill="rgb(90.979004%, 36.859131%, 0%)" fill-opacity="1">
    <g transform="translate(227.796653, 248.766838)">
      <g>
        <path d="M 4.828125 0.140625 C 3.523438 0.140625 2.460938 -0.285156 1.640625 -1.140625 C 0.828125 -1.992188 0.421875 -3.238281 0.421875 -4.875 C 0.421875 -6.507812 0.832031 -7.75 1.65625 -8.59375 C 2.488281 -9.4375 3.5625 -9.859375 4.875 -9.859375 C 6.1875 -9.859375 7.242188 -9.441406 8.046875 -8.609375 C 8.859375 -7.785156 9.265625 -6.53125 9.265625 -4.84375 C 9.265625 -3.164062 8.847656 -1.914062 8.015625 -1.09375 C 7.191406 -0.269531 6.128906 0.140625 4.828125 0.140625 Z M 4.828125 -7.1875 C 4.390625 -7.1875 4.019531 -6.984375 3.71875 -6.578125 C 3.414062 -6.171875 3.265625 -5.597656 3.265625 -4.859375 C 3.265625 -4.117188 3.40625 -3.550781 3.6875 -3.15625 C 3.976562 -2.769531 4.359375 -2.578125 4.828125 -2.578125 C 5.296875 -2.578125 5.675781 -2.773438 5.96875 -3.171875 C 6.257812 -3.566406 6.40625 -4.132812 6.40625 -4.875 C 6.40625 -5.625 6.253906 -6.195312 5.953125 -6.59375 C 5.648438 -6.988281 5.273438 -7.1875 4.828125 -7.1875 Z M 4.828125 -7.1875 " />
      </g>
    </g>
  </g>
  <g fill="rgb(90.979004%, 36.859131%, 0%)" fill-opacity="1">
    <g transform="translate(238.730268, 248.766838)">
      <g>
        <path d="M 4.828125 0.140625 C 3.523438 0.140625 2.460938 -0.285156 1.640625 -1.140625 C 0.828125 -1.992188 0.421875 -3.238281 0.421875 -4.875 C 0.421875 -6.507812 0.832031 -7.75 1.65625 -8.59375 C 2.488281 -9.4375 3.5625 -9.859375 4.875 -9.859375 C 6.1875 -9.859375 7.242188 -9.441406 8.046875 -8.609375 C 8.859375 -7.785156 9.265625 -6.53125 9.265625 -4.84375 C 9.265625 -3.164062 8.847656 -1.914062 8.015625 -1.09375 C 7.191406 -0.269531 6.128906 0.140625 4.828125 0.140625 Z M 4.828125 -7.1875 C 4.390625 -7.1875 4.019531 -6.984375 3.71875 -6.578125 C 3.414062 -6.171875 3.265625 -5.597656 3.265625 -4.859375 C 3.265625 -4.117188 3.40625 -3.550781 3.6875 -3.15625 C 3.976562 -2.769531 4.359375 -2.578125 4.828125 -2.578125 C 5.296875 -2.578125 5.675781 -2.773438 5.96875 -3.171875 C 6.257812 -3.566406 6.40625 -4.132812 6.40625 -4.875 C 6.40625 -5.625 6.253906 -6.195312 5.953125 -6.59375 C 5.648438 -6.988281 5.273438 -7.1875 4.828125 -7.1875 Z M 4.828125 -7.1875 " />
      </g>
    </g>
  </g>
  <g fill="rgb(90.979004%, 36.859131%, 0%)" fill-opacity="1">
    <g transform="translate(249.663884, 248.766838)">
      <g>
        <path d="M 0.5625 -0.828125 L 0.5625 -9.46875 C 0.5625 -9.664062 1.03125 -9.765625 1.96875 -9.765625 C 2.90625 -9.765625 3.375 -9.664062 3.375 -9.46875 L 3.375 -2.65625 L 5.515625 -2.65625 C 5.679688 -2.65625 5.800781 -2.4375 5.875 -2 C 5.894531 -1.789062 5.90625 -1.570312 5.90625 -1.34375 C 5.90625 -1.125 5.894531 -0.898438 5.875 -0.671875 C 5.789062 -0.222656 5.664062 0 5.5 0 L 1.21875 0 C 1.019531 0 0.859375 -0.0820312 0.734375 -0.25 C 0.617188 -0.414062 0.5625 -0.609375 0.5625 -0.828125 Z M 0.5625 -0.828125 " />
      </g>
    </g>
  </g>
  <g fill="rgb(90.979004%, 36.859131%, 0%)" fill-opacity="1">
    <g transform="translate(256.966965, 248.766838)">
      <g>
        <path d="M 1.0625 -3.390625 C 1.238281 -3.253906 1.539062 -3.066406 1.96875 -2.828125 C 2.394531 -2.585938 2.804688 -2.46875 3.203125 -2.46875 C 3.597656 -2.46875 3.796875 -2.617188 3.796875 -2.921875 C 3.796875 -3.054688 3.738281 -3.175781 3.625 -3.28125 C 3.519531 -3.394531 3.316406 -3.519531 3.015625 -3.65625 C 2.722656 -3.789062 2.5 -3.898438 2.34375 -3.984375 C 2.195312 -4.066406 2 -4.195312 1.75 -4.375 C 1.507812 -4.550781 1.328125 -4.738281 1.203125 -4.9375 C 0.828125 -5.46875 0.640625 -6.140625 0.640625 -6.953125 C 0.640625 -7.765625 0.941406 -8.453125 1.546875 -9.015625 C 2.160156 -9.578125 2.957031 -9.859375 3.9375 -9.859375 C 4.601562 -9.859375 5.21875 -9.785156 5.78125 -9.640625 C 6.351562 -9.492188 6.644531 -9.304688 6.65625 -9.078125 C 6.65625 -9.046875 6.65625 -9.019531 6.65625 -9 C 6.65625 -8.675781 6.550781 -8.265625 6.34375 -7.765625 C 6.144531 -7.265625 6.003906 -6.988281 5.921875 -6.9375 C 5.328125 -7.238281 4.796875 -7.390625 4.328125 -7.390625 C 3.859375 -7.390625 3.625 -7.222656 3.625 -6.890625 C 3.625 -6.691406 3.796875 -6.515625 4.140625 -6.359375 C 4.210938 -6.316406 4.316406 -6.265625 4.453125 -6.203125 C 4.597656 -6.140625 4.757812 -6.0625 4.9375 -5.96875 C 5.125 -5.882812 5.320312 -5.773438 5.53125 -5.640625 C 5.738281 -5.503906 5.960938 -5.328125 6.203125 -5.109375 C 6.691406 -4.640625 6.9375 -4.023438 6.9375 -3.265625 C 6.9375 -2.273438 6.660156 -1.460938 6.109375 -0.828125 C 5.566406 -0.203125 4.726562 0.117188 3.59375 0.140625 C 3.03125 0.140625 2.523438 0.09375 2.078125 0 C 1.628906 -0.09375 1.238281 -0.273438 0.90625 -0.546875 C 0.570312 -0.816406 0.40625 -1.140625 0.40625 -1.515625 C 0.40625 -1.890625 0.472656 -2.265625 0.609375 -2.640625 C 0.753906 -3.023438 0.90625 -3.273438 1.0625 -3.390625 Z M 1.0625 -3.390625 " />
      </g>
    </g>
  </g>
</svg>